<svg xmlns="http://www.w3.org/2000/svg" xmlns:xlink="http://www.w3.org/1999/xlink" id="processonSvg1000" viewBox="122.0 526.0 895.0 655.0" width="895.0" height="655.0"><defs id="ProcessOnDefs1001"><pattern id="ProcessOnPattern1021" patternUnits="userSpaceOnUse" width="128.0" height="128.0"><image id="ProcessOnImage1022"/></pattern><pattern id="ProcessOnPattern1037" patternUnits="userSpaceOnUse" width="45.0" height="41.0"><image id="ProcessOnImage1038"/></pattern><pattern id="ProcessOnPattern1041" patternUnits="userSpaceOnUse" width="45.0" height="41.0"><image id="ProcessOnImage1042"/></pattern><pattern id="ProcessOnPattern1063" patternUnits="userSpaceOnUse" width="45.0" height="41.0"><image id="ProcessOnImage1064"/></pattern><marker id="ProcessOnMarker1071" markerUnits="userSpaceOnUse" orient="auto" markerWidth="16.23606797749979" markerHeight="10.550836550532098" viewBox="-1.0 -1.3763819204711736 16.23606797749979 10.550836550532098" refX="-1.0" refY="3.8990363547948754"><path id="ProcessOnPath1072" d="M12.0 3.8990363547948754L0.0 7.798072709589751V0.0Z" stroke="#737373" stroke-width="2.0" fill="#737373" transform="matrix(1.0,0.0,0.0,1.0,0.0,0.0)"/></marker><marker id="ProcessOnMarker1075" markerUnits="userSpaceOnUse" orient="auto" markerWidth="16.23606797749979" markerHeight="10.550836550532098" viewBox="-1.0 -1.3763819204711736 16.23606797749979 10.550836550532098" refX="-1.0" refY="3.8990363547948754"><path id="ProcessOnPath1076" d="M12.0 3.8990363547948754L0.0 7.798072709589751V0.0Z" stroke="#737373" stroke-width="2.0" fill="#737373" transform="matrix(1.0,0.0,0.0,1.0,0.0,0.0)"/></marker><pattern id="ProcessOnPattern1083" patternUnits="userSpaceOnUse" width="84.0" height="78.25"><image id="ProcessOnImage1084"/></pattern><pattern id="ProcessOnPattern1087" patternUnits="userSpaceOnUse" width="45.0" height="41.0"><image id="ProcessOnImage1088"/></pattern></defs><g id="ProcessOnG1002"><path id="ProcessOnPath1003" d="M122.0 526.0H1017.0V1181.0H122.0V526.0Z" fill="none"/><g id="ProcessOnG1004"><g id="ProcessOnG1005" transform="matrix(1.0,0.0,0.0,1.0,494.0,608.5)" opacity="1.0"><path id="ProcessOnPath1006" d="M0.0 0.0L100.0 0.0L100.0 70.0L0.0 70.0Z" stroke="#323232" stroke-width="2.0" stroke-dasharray="none" opacity="1.0" fill="#ffffff"/><g id="ProcessOnG1007" transform="matrix(1.0,0.0,0.0,1.0,10.0,17.5)"><text id="ProcessOnText1008" fill="#000000" font-size="28" x="39.0" y="28.700000000000003" font-family="微软雅黑" font-weight="normal" font-style="normal" text-decoration="none" family="微软雅黑" text-anchor="middle" size="28">挂载</text></g></g><g id="ProcessOnG1009" transform="matrix(1.0,0.0,0.0,1.0,494.0,785.5)" opacity="1.0"><path id="ProcessOnPath1010" d="M0.0 0.0L100.0 0.0L100.0 70.0L0.0 70.0Z" stroke="#323232" stroke-width="2.0" stroke-dasharray="none" opacity="1.0" fill="#ffffff"/><g id="ProcessOnG1011" transform="matrix(1.0,0.0,0.0,1.0,10.0,17.5)"><text id="ProcessOnText1012" fill="#000000" font-size="28" x="39.0" y="28.700000000000003" font-family="微软雅黑" font-weight="normal" font-style="normal" text-decoration="none" family="微软雅黑" text-anchor="middle" size="28">更新</text></g></g><g id="ProcessOnG1013" transform="matrix(1.0,0.0,0.0,1.0,509.0,866.0)" opacity="1.0"><path id="ProcessOnPath1014" d="M19.8 0.0L40.2 0.0L40.2 60.0L60.0 60.0L30.0 90.0L0.0 60.0L19.8 60.0L19.8 0.0Z" stroke="#000000" stroke-width="2.0" stroke-dasharray="none" opacity="1.0" fill="#ffff99"/></g><g id="ProcessOnG1015" transform="matrix(1.0,0.0,0.0,1.0,494.0,972.0)" opacity="1.0"><path id="ProcessOnPath1016" d="M0.0 0.0L100.0 0.0L100.0 70.0L0.0 70.0Z" stroke="#323232" stroke-width="2.0" stroke-dasharray="none" opacity="1.0" fill="#ffffff"/><g id="ProcessOnG1017" transform="matrix(1.0,0.0,0.0,1.0,10.0,17.5)"><text id="ProcessOnText1018" fill="#000000" font-size="28" x="39.0" y="28.700000000000003" font-family="微软雅黑" font-weight="normal" font-style="normal" text-decoration="none" family="微软雅黑" text-anchor="middle" size="28">卸载</text></g></g><g id="ProcessOnG1019" transform="matrix(1.0,0.0,0.0,1.0,366.0,756.5)" opacity="1.0"><path id="ProcessOnPath1020" d="M0.0 0.0L128.0 0.0L128.0 128.0L0.0 128.0Z" stroke="none" stroke-width="0.0" stroke-dasharray="none" opacity="1.0"/></g><g id="ProcessOnG1023" transform="matrix(1.0,0.0,0.0,1.0,158.0,546.0)" opacity="1.0"><path id="ProcessOnPath1024" d="M0.0 0.0L291.0 0.0L291.0 195.0L0.0 195.0Z" stroke="#323232" stroke-width="2.0" stroke-dasharray="10.0 4.0" opacity="1.0" fill="#ccffff"/><g id="ProcessOnG1025" transform="matrix(1.0,0.0,0.0,1.0,10.0,13.125)"><text id="ProcessOnText1026" fill="#000000" font-size="15" x="0.0" y="15.375" font-family="Courier New" font-weight="bold" font-style="normal" text-decoration="none" family="Courier New" text-anchor="start" size="15">1.constructor()</text><text id="ProcessOnText1027" fill="#000000" font-size="15" x="0.0" y="34.125" font-family="Courier New" font-weight="bold" font-style="normal" text-decoration="none" family="Courier New" text-anchor="start" size="15"></text><text id="ProcessOnText1028" fill="#000000" font-size="15" x="0.0" y="52.875" font-family="Courier New" font-weight="bold" font-style="normal" text-decoration="none" family="Courier New" text-anchor="start" size="15">2.getDerivedStateFromProps()</text><text id="ProcessOnText1029" fill="#000000" font-size="15" x="0.0" y="71.625" font-family="Courier New" font-weight="bold" font-style="normal" text-decoration="none" family="Courier New" text-anchor="start" size="15"></text><text id="ProcessOnText1030" fill="#000000" font-size="15" x="0.0" y="90.375" font-family="Courier New" font-weight="bold" font-style="normal" text-decoration="none" family="Courier New" text-anchor="start" size="15">3.UNSAFE_componentWillMount()</text><text id="ProcessOnText1031" fill="#000000" font-size="15" x="0.0" y="109.125" font-family="Courier New" font-weight="bold" font-style="normal" text-decoration="none" family="Courier New" text-anchor="start" size="15"></text><text id="ProcessOnText1032" fill="#000000" font-size="15" x="0.0" y="127.875" font-family="Courier New" font-weight="bold" font-style="normal" text-decoration="none" family="Courier New" text-anchor="start" size="15">4.render()</text><text id="ProcessOnText1033" fill="#000000" font-size="15" x="0.0" y="146.625" font-family="Courier New" font-weight="bold" font-style="normal" text-decoration="none" family="Courier New" text-anchor="start" size="15"></text><text id="ProcessOnText1034" fill="#000000" font-size="15" x="0.0" y="165.375" font-family="Courier New" font-weight="bold" font-style="normal" text-decoration="none" family="Courier New" text-anchor="start" size="15">5.componentDidMount()</text></g></g><g id="ProcessOnG1035" transform="matrix(1.0,0.0,0.0,1.0,449.0,623.0)" opacity="1.0"><path id="ProcessOnPath1036" d="M0.0 0.0L45.0 0.0L45.0 41.0L0.0 41.0Z" stroke="none" stroke-width="0.0" stroke-dasharray="none" opacity="1.0"/></g><g id="ProcessOnG1039" transform="matrix(-1.0,1.2246467991473532E-16,-1.2246467991473532E-16,-1.0,639.0,841.0)" opacity="1.0"><path id="ProcessOnPath1040" d="M0.0 0.0L45.0 0.0L45.0 41.0L0.0 41.0Z" stroke="none" stroke-width="0.0" stroke-dasharray="none" opacity="1.0"/></g><g id="ProcessOnG1043" transform="matrix(1.0,0.0,0.0,1.0,632.0,687.0)" opacity="1.0"><path id="ProcessOnPath1044" d="M0.0 0.0L347.0 0.0L347.0 295.0L0.0 295.0Z" stroke="#323232" stroke-width="2.0" stroke-dasharray="10.0 4.0" opacity="1.0" fill="#ccffff"/><g id="ProcessOnG1045" transform="matrix(1.0,0.0,0.0,1.0,10.0,25.625)"><text id="ProcessOnText1046" fill="#000000" font-size="15" x="0.0" y="15.375" font-family="Courier New" font-weight="bold" font-style="normal" text-decoration="none" family="Courier New" text-anchor="start" size="15">1.UNSAFE_componentWillReceiveProps()</text><text id="ProcessOnText1047" fill="#000000" font-size="15" x="0.0" y="34.125" font-family="Courier New" font-weight="bold" font-style="normal" text-decoration="none" family="Courier New" text-anchor="start" size="15"></text><text id="ProcessOnText1048" fill="#000000" font-size="15" x="0.0" y="52.875" font-family="Courier New" font-weight="bold" font-style="normal" text-decoration="none" family="Courier New" text-anchor="start" size="15">2. getDerivedStateFromProps()</text><text id="ProcessOnText1049" fill="#000000" font-size="15" x="0.0" y="71.625" font-family="Courier New" font-weight="bold" font-style="normal" text-decoration="none" family="Courier New" text-anchor="start" size="15"></text><text id="ProcessOnText1050" fill="#000000" font-size="15" x="0.0" y="90.375" font-family="Courier New" font-weight="bold" font-style="normal" text-decoration="none" family="Courier New" text-anchor="start" size="15">3. shouldComponentUpdate()</text><text id="ProcessOnText1051" fill="#000000" font-size="15" x="0.0" y="109.125" font-family="Courier New" font-weight="bold" font-style="normal" text-decoration="none" family="Courier New" text-anchor="start" size="15"></text><text id="ProcessOnText1052" fill="#000000" font-size="15" x="0.0" y="127.875" font-family="Courier New" font-weight="bold" font-style="normal" text-decoration="none" family="Courier New" text-anchor="start" size="15">4. UNSAFE_componentWillUpdate()</text><text id="ProcessOnText1053" fill="#000000" font-size="15" x="0.0" y="146.625" font-family="Courier New" font-weight="bold" font-style="normal" text-decoration="none" family="Courier New" text-anchor="start" size="15"></text><text id="ProcessOnText1054" fill="#000000" font-size="15" x="0.0" y="165.375" font-family="Courier New" font-weight="bold" font-style="normal" text-decoration="none" family="Courier New" text-anchor="start" size="15">5. render()</text><text id="ProcessOnText1055" fill="#000000" font-size="15" x="0.0" y="184.125" font-family="Courier New" font-weight="bold" font-style="normal" text-decoration="none" family="Courier New" text-anchor="start" size="15"></text><text id="ProcessOnText1056" fill="#000000" font-size="15" x="0.0" y="202.875" font-family="Courier New" font-weight="bold" font-style="normal" text-decoration="none" family="Courier New" text-anchor="start" size="15">6. getSnapshotBeforeUpdate()</text><text id="ProcessOnText1057" fill="#000000" font-size="15" x="0.0" y="221.625" font-family="Courier New" font-weight="bold" font-style="normal" text-decoration="none" family="Courier New" text-anchor="start" size="15"></text><text id="ProcessOnText1058" fill="#000000" font-size="15" x="0.0" y="240.375" font-family="Courier New" font-weight="bold" font-style="normal" text-decoration="none" family="Courier New" text-anchor="start" size="15">7. componentDidUpdate()</text></g></g><g id="ProcessOnG1059" transform="matrix(1.0,0.0,0.0,1.0,509.0,687.0)" opacity="1.0"><path id="ProcessOnPath1060" d="M19.8 0.0L40.2 0.0L40.2 60.0L60.0 60.0L30.0 90.0L0.0 60.0L19.8 60.0L19.8 0.0Z" stroke="#000000" stroke-width="2.0" stroke-dasharray="none" opacity="1.0" fill="#ffff99"/></g><g id="ProcessOnG1061" transform="matrix(1.0,0.0,0.0,1.0,444.0,986.5)" opacity="1.0"><path id="ProcessOnPath1062" d="M0.0 0.0L45.0 0.0L45.0 41.0L0.0 41.0Z" stroke="none" stroke-width="0.0" stroke-dasharray="none" opacity="1.0"/></g><g id="ProcessOnG1065" transform="matrix(1.0,0.0,0.0,1.0,158.0,966.25)" opacity="1.0"><path id="ProcessOnPath1066" d="M0.0 0.0L291.0 0.0L291.0 81.5L0.0 81.5Z" stroke="#323232" stroke-width="2.0" stroke-dasharray="10.0 4.0" opacity="1.0" fill="#ccffff"/><g id="ProcessOnG1067" transform="matrix(1.0,0.0,0.0,1.0,10.0,31.375)"><text id="ProcessOnText1068" fill="#000000" font-size="15" x="0.0" y="15.375" font-family="Courier New" font-weight="bold" font-style="normal" text-decoration="none" family="Courier New" text-anchor="start" size="15">1. componentWillUnmount()</text></g></g><g id="ProcessOnG1069"><path id="ProcessOnPath1070" d="M142.0 582.0L142.0 644.5L142.0 644.5L142.0 691.7639320225002" stroke="#737373" stroke-width="2.0" stroke-dasharray="10.0 4.0" fill="none" marker-end="url(#ProcessOnMarker1071)"/></g><g id="ProcessOnG1073"><path id="ProcessOnPath1074" d="M997.0 725.0L997.0 821.0L997.0 821.0L997.0 901.7639320225002" stroke="#737373" stroke-width="2.0" stroke-dasharray="10.0 4.0" fill="none" marker-end="url(#ProcessOnMarker1075)"/></g><g id="ProcessOnG1077" transform="matrix(1.0,0.0,0.0,1.0,791.0,1085.25)" opacity="1.0"><path id="ProcessOnPath1078" d="M0.0 0.0L100.0 0.0L100.0 70.0L0.0 70.0Z" stroke="#323232" stroke-width="2.0" stroke-dasharray="none" opacity="1.0" fill="#ffffff"/><g id="ProcessOnG1079" transform="matrix(1.0,0.0,0.0,1.0,10.0,17.5)"><text id="ProcessOnText1080" fill="#000000" font-size="28" x="39.0" y="28.700000000000003" font-family="微软雅黑" font-weight="normal" font-style="normal" text-decoration="none" family="微软雅黑" text-anchor="middle" size="28">捕错</text></g></g><g id="ProcessOnG1081" transform="matrix(1.0,0.0,0.0,1.0,895.0,1073.0)" opacity="1.0"><path id="ProcessOnPath1082" d="M0.0 0.0L84.0 0.0L84.0 78.25L0.0 78.25Z" stroke="none" stroke-width="0.0" stroke-dasharray="none" opacity="1.0"/></g><g id="ProcessOnG1085" transform="matrix(1.0,0.0,0.0,1.0,746.0,1099.75)" opacity="1.0"><path id="ProcessOnPath1086" d="M0.0 0.0L45.0 0.0L45.0 41.0L0.0 41.0Z" stroke="none" stroke-width="0.0" stroke-dasharray="none" opacity="1.0"/></g><g id="ProcessOnG1089" transform="matrix(1.0,0.0,0.0,1.0,529.0,1079.5)" opacity="1.0"><path id="ProcessOnPath1090" d="M0.0 0.0L222.0 0.0L222.0 81.5L0.0 81.5Z" stroke="#323232" stroke-width="2.0" stroke-dasharray="10.0 4.0" opacity="1.0" fill="#ccffff"/><g id="ProcessOnG1091" transform="matrix(1.0,0.0,0.0,1.0,10.0,31.375)"><text id="ProcessOnText1092" fill="#000000" font-size="15" x="0.0" y="15.375" font-family="Courier New" font-weight="bold" font-style="normal" text-decoration="none" family="Courier New" text-anchor="start" size="15">1. componentDidCatch()</text></g></g><g id="ProcessOnG1093" transform="matrix(1.0,0.0,0.0,1.0,673.0,559.0)" opacity="1.0"><path id="ProcessOnPath1094" d="M0.0 0.0L233.0 0.0L233.0 20.0L0.0 20.0Z" stroke="none" stroke-width="0.0" stroke-dasharray="none" opacity="1.0" fill="none"/></g><g id="ProcessOnG1095" transform="matrix(1.0,0.0,0.0,1.0,683.0,546.0)" opacity="1.0"><path id="ProcessOnPath1096" d="M22.68 61.599999999999994C-18.900000000000002 44.0 7.5600000000000005 30.799999999999997 17.009999999999998 26.4C13.23 4.4 60.480000000000004 0.0 79.38 8.8C94.5 -4.4 141.75 0.0 141.75 13.2C179.54999999999998 8.8 194.67000000000002 26.4 179.54999999999998 48.400000000000006C192.78 66.0 179.54999999999998 88.0 136.07999999999998 79.2C126.63000000000001 90.64 88.83 90.64 79.38 79.2C60.480000000000004 88.0 22.68 83.6 22.68 61.599999999999994Z" stroke="#323232" stroke-width="2.0" stroke-dasharray="none" opacity="1.0" fill="#ffffff"/><g id="ProcessOnG1097" transform="matrix(1.0,0.0,0.0,1.0,10.0,32.125)"><text id="ProcessOnText1098" fill="#000000" font-size="19" x="83.5" y="19.475" font-family="微软雅黑" font-weight="bold" font-style="normal" text-decoration="none" family="微软雅黑" text-anchor="middle" size="19">共12个钩子函数</text></g></g></g></g></svg>